<svg width="740" height="489" viewBox="0 0 740 489" fill="none" xmlns="http://www.w3.org/2000/svg">
<path fill-rule="evenodd" clip-rule="evenodd" d="M0 225.338C0 208.77 13.4315 195.338 30 195.338H297C313.569 195.338 327 181.907 327 165.338V132.769C327 116.2 340.431 102.769 357 102.769H588C604.569 102.769 618 89.3373 618 72.7688V30C618 13.4315 631.431 0 648 0H710C726.569 0 740 13.4315 740 30V459C740 475.569 726.569 489 710 489H179.996C169.927 489 160.788 483.679 153.774 476.455C137.941 460.15 115.67 450 91 450C69.7514 450 50.2821 457.53 35.1738 470.038C24.6239 478.772 8.5732 484.067 2.79045 471.652C0.999844 467.808 0 463.521 0 459V225.338Z" fill="#C4C4C4"/>
</svg>
