<svg width="25" height="25" viewBox="0 0 25 25" fill="none" xmlns="http://www.w3.org/2000/svg">
<path fill-rule="evenodd" clip-rule="evenodd" d="M19.999 12.3734C20.0689 16.5149 16.7683 19.929 12.6267 19.999C8.48517 20.0689 5.07107 16.7683 5.00111 12.6267C4.93115 8.48517 8.23182 5.07107 12.3734 5.00111C13.9259 4.97488 15.3762 5.42231 16.5864 6.21012C17.4522 6.77374 18.5031 7.08969 19.4923 6.79186C21.2543 6.26139 21.9995 4.17039 20.5982 2.97775C18.3635 1.07579 15.4536 -0.0516405 12.2889 0.00181991C5.38633 0.118422 -0.114783 5.80859 0.00181991 12.7112C0.118422 19.6137 5.80859 25.1149 12.7112 24.9983C19.6137 24.8817 25.1149 19.1915 24.9983 12.2889C24.9969 12.2086 24.9948 12.1284 24.9919 12.0484C24.9402 10.6032 23.4624 9.77397 22.0777 10.1909L21.2743 10.4327C20.4554 10.6793 19.9845 11.5184 19.999 12.3734Z" fill="white"/>
</svg>
