<svg width="32" height="32" viewBox="0 0 32 32" fill="none" xmlns="http://www.w3.org/2000/svg">
<path fill-rule="evenodd" clip-rule="evenodd" d="M26.1986 15.7131C26.2948 21.4077 21.7564 26.1021 16.0617 26.1983C10.3671 26.2945 5.67273 21.7561 5.57653 16.0614C5.48033 10.3668 10.0188 5.67242 15.7134 5.57622C18.2602 5.5332 20.607 6.41718 22.4318 7.91701C23.2495 8.58905 24.3286 8.93224 25.342 8.62712C27.0554 8.11129 27.7865 6.08475 26.4962 4.84507C23.6818 2.1411 19.8395 0.505809 15.6289 0.576936C7.17327 0.719775 0.434404 7.69023 0.577242 16.1459C0.72008 24.6015 7.69054 31.3404 16.1462 31.1976C24.6018 31.0547 31.3407 24.0843 31.1979 15.6286C31.1928 15.3259 31.1789 15.0254 31.1565 14.7273C31.0487 13.291 29.5813 12.4681 28.2021 12.8833L28.0131 12.9402C26.8451 13.2919 26.178 14.4935 26.1986 15.7131Z" fill="#343434"/>
</svg>
