<svg width="20" height="23" viewBox="0 0 20 23" fill="none" xmlns="http://www.w3.org/2000/svg">
<path d="M13.3333 0H6.66667V2.19048H13.3333V0ZM8.88889 14.2381H11.1111V7.66667H8.88889V14.2381ZM17.8111 6.99857L19.3889 5.44333C18.9111 4.88476 18.3889 4.35905 17.8222 3.89905L16.2444 5.45429C14.5222 4.09619 12.3556 3.28571 10 3.28571C4.47778 3.28571 0 7.69952 0 13.1429C0 18.5862 4.46667 23 10 23C15.5333 23 20 18.5862 20 13.1429C20 10.821 19.1778 8.68524 17.8111 6.99857ZM10 20.8095C5.7 20.8095 2.22222 17.3814 2.22222 13.1429C2.22222 8.90429 5.7 5.47619 10 5.47619C14.3 5.47619 17.7778 8.90429 17.7778 13.1429C17.7778 17.3814 14.3 20.8095 10 20.8095Z" fill="#5C5C5C"/>
</svg>
