<svg width="5" height="6" viewBox="0 0 5 6" fill="none" xmlns="http://www.w3.org/2000/svg">
<path d="M1.11111 2.7H1.66667V3.3H1.11111V2.7ZM5 1.2V5.4C5 5.73 4.75 6 4.44444 6H0.555556C0.247222 6 0 5.73 0 5.4L0.00277778 1.2C0.00277778 0.87 0.247222 0.6 0.555556 0.6H0.833333V0H1.38889V0.6H3.61111V0H4.16667V0.6H4.44444C4.75 0.6 5 0.87 5 1.2ZM0.555556 1.8H4.44444V1.2H0.555556V1.8ZM4.44444 5.4V2.4H0.555556V5.4H4.44444ZM3.33333 3.3H3.88889V2.7H3.33333V3.3ZM2.22222 3.3H2.77778V2.7H2.22222V3.3Z" fill="#D9D9D9"/>
</svg>
